<?xml version="1.0" standalone="no"?>
<!DOCTYPE svg PUBLIC "-//W3C//DTD SVG 20010904//EN"
 "http://www.w3.org/TR/2001/REC-SVG-20010904/DTD/svg10.dtd">
<svg version="1.0" xmlns="http://www.w3.org/2000/svg"
 width="950.000000pt" height="950.000000pt" viewBox="0 0 950.000000 950.000000"
 preserveAspectRatio="xMidYMid meet">
<metadata>
Created by potrace 1.14, written by Peter Selinger 2001-2017
</metadata>
<g transform="translate(0.000000,950.000000) scale(0.100000,-0.100000)"
fill="#000000" stroke="none">
<path d="M5930 8580 l0 -410 -817 0 c-818 0 -1043 -6 -1268 -36 -916 -118
-1643 -542 -2039 -1189 -65 -106 -167 -318 -205 -427 -42 -122 -97 -350 -117
-493 -23 -153 -26 -556 -6 -690 39 -259 126 -528 233 -722 50 -89 172 -272
224 -333 152 -179 339 -343 520 -455 l80 -50 460 -5 460 -5 -224 -185 c-124
-102 -358 -295 -520 -430 -420 -348 -722 -598 -979 -809 -122 -101 -224 -186
-226 -190 -2 -3 48 -49 112 -101 64 -52 198 -162 298 -245 480 -398 643 -533
809 -669 99 -82 203 -168 230 -191 229 -193 524 -432 529 -427 3 3 6 187 6
409 l0 403 803 0 c441 0 861 3 932 6 607 25 1080 135 1509 350 573 289 980
771 1185 1405 207 640 138 1305 -189 1829 -166 266 -435 536 -735 738 l-100
67 -463 5 -462 5 226 185 c124 102 231 190 237 195 7 6 64 53 127 105 202 167
363 301 419 349 62 53 320 266 679 561 138 113 253 210 255 216 3 7 -49 56
-115 110 -66 55 -125 104 -132 109 -6 6 -33 28 -61 51 -27 22 -144 118 -260
214 -115 95 -270 223 -344 284 -203 168 -226 189 -223 199 1 4 -1 6 -5 4 -9
-5 -52 29 -378 298 -121 99 -246 202 -279 229 -34 27 -63 52 -66 55 -11 13
-109 91 -114 91 -3 0 -6 -184 -6 -410z m0 -2450 l0 -399 -712 -3 c-710 -3
-713 -3 -753 -25 -57 -30 -79 -74 -73 -150 8 -116 59 -152 610 -426 453 -225
602 -313 751 -441 142 -123 245 -287 289 -461 19 -77 23 -116 23 -275 0 -159
-4 -198 -23 -275 -61 -244 -212 -436 -433 -550 -102 -53 -140 -67 -264 -100
-213 -56 -237 -58 -1077 -62 l-778 -5 0 406 0 406 743 2 c702 3 744 4 780 22
52 26 80 69 85 131 12 141 -19 165 -523 415 -220 109 -458 233 -530 275 -300
176 -468 342 -554 550 -51 122 -66 209 -66 395 0 182 16 267 75 396 139 307
469 521 867 562 49 5 420 10 826 11 l737 1 0 -400z"/>
<path d="M7414 1601 c-2 -2 -4 -19 -4 -38 0 -31 2 -33 34 -33 30 0 35 -4 41
-30 4 -16 6 -53 5 -82 -3 -92 -4 -90 38 -86 l37 3 3 96 3 97 39 4 39 3 3 -100
3 -100 40 0 40 0 4 55 4 55 12 -40 c11 -38 14 -40 57 -43 l45 -3 16 53 15 53
-1 -65 -2 -65 40 0 40 0 0 135 0 135 -50 -2 c-27 -1 -52 -2 -55 -2 -3 -1 -14
-30 -24 -66 -10 -36 -21 -63 -25 -60 -3 4 -15 34 -26 67 l-20 61 -55 0 c-53 0
-55 -1 -59 -29 l-4 -29 -6 28 -6 29 -108 1 c-60 1 -111 0 -113 -2z"/>
</g>
</svg>
